<svg width="25" height="24" viewBox="0 0 25 24" fill="none" xmlns="http://www.w3.org/2000/svg">
<path d="M21.6644 8.1816C21.5252 8.2896 19.0676 9.6744 19.0676 12.7536C19.0676 16.3152 22.1948 17.5752 22.2884 17.6064C22.274 17.6832 21.7916 19.332 20.6396 21.012C19.6124 22.4904 18.5396 23.9664 16.9076 23.9664C15.2756 23.9664 14.8556 23.0184 12.9716 23.0184C11.1356 23.0184 10.4828 23.9976 8.99 23.9976C7.4972 23.9976 6.4556 22.6296 5.258 20.9496C3.8708 18.9768 2.75 15.912 2.75 13.0032C2.75 8.3376 5.7836 5.8632 8.7692 5.8632C10.3556 5.8632 11.678 6.9048 12.674 6.9048C13.622 6.9048 15.1004 5.8008 16.9052 5.8008C17.5892 5.8008 20.0468 5.8632 21.6644 8.1816ZM16.0484 3.8256C16.7948 2.94 17.3228 1.7112 17.3228 0.4824C17.3228 0.312 17.3084 0.1392 17.2772 0C16.0628 0.0456 14.618 0.8088 13.7468 1.8192C13.0628 2.5968 12.4244 3.8256 12.4244 5.0712C12.4244 5.2584 12.4556 5.4456 12.47 5.5056C12.5468 5.52 12.6716 5.5368 12.7964 5.5368C13.886 5.5368 15.2564 4.8072 16.0484 3.8256Z" fill="white"/>
</svg>
