<svg width="17" height="17" viewBox="0 0 17 17" fill="none" xmlns="http://www.w3.org/2000/svg">
<g clip-path="url(#clip0_377_776)">
<path d="M12.8122 15.52C12.7069 15.5204 12.6042 15.4876 12.5187 15.4263L8.49966 12.5125L4.4806 15.4263C4.39474 15.4885 4.29129 15.5219 4.18522 15.5215C4.07915 15.5211 3.97595 15.487 3.89054 15.4241C3.80513 15.3612 3.74193 15.2728 3.71009 15.1716C3.67825 15.0704 3.67942 14.9617 3.71341 14.8613L5.28091 10.2184L1.21841 7.43251C1.13042 7.37223 1.064 7.28539 1.02887 7.18468C0.993743 7.08397 0.991741 6.97466 1.02316 6.87273C1.05457 6.7708 1.11776 6.68159 1.20349 6.61813C1.28922 6.55467 1.393 6.52029 1.49966 6.52001H6.51154L8.02404 1.86532C8.05662 1.76483 8.1202 1.67724 8.20564 1.61511C8.29109 1.55299 8.39402 1.51953 8.49966 1.51953C8.60531 1.51953 8.70823 1.55299 8.79368 1.61511C8.87913 1.67724 8.94271 1.76483 8.97529 1.86532L10.4878 6.52157H15.4997C15.6065 6.52152 15.7105 6.55566 15.7964 6.619C15.8824 6.68234 15.9459 6.77154 15.9775 6.87355C16.0091 6.97556 16.0072 7.08501 15.9721 7.18587C15.937 7.28674 15.8706 7.37372 15.7825 7.43407L11.7184 10.2184L13.285 14.86C13.3104 14.9352 13.3175 15.0153 13.3058 15.0937C13.2941 15.1722 13.2639 15.2467 13.2177 15.3112C13.1715 15.3757 13.1107 15.4282 13.0401 15.4645C12.9696 15.5009 12.8915 15.5199 12.8122 15.52Z" fill="#F8B720" stroke="#F8B720" stroke-width="0.03125"/>
</g>
<defs>
<clipPath id="clip0_377_776">
<rect width="16" height="16" fill="white" transform="translate(0.5 0.52002)"/>
</clipPath>
</defs>
</svg>
