<svg width="21" height="21" viewBox="0 0 21 21" fill="none" xmlns="http://www.w3.org/2000/svg">
<path d="M17.9607 1.5H3.35566C2.55762 1.5 1.86035 2.07422 1.86035 2.86289V17.5004C1.86035 18.2934 2.55762 19 3.35566 19H17.9564C18.7588 19 19.3604 18.2887 19.3604 17.5004V2.86289C19.365 2.07422 18.7588 1.5 17.9607 1.5ZM7.28496 16.0871H4.77793V8.29219H7.28496V16.0871ZM6.11816 7.10703H6.1002C5.29785 7.10703 4.77832 6.50977 4.77832 5.76211C4.77832 5.00078 5.31152 4.41758 6.13184 4.41758C6.95215 4.41758 7.4541 4.99648 7.47207 5.76211C7.47168 6.50977 6.95215 7.10703 6.11816 7.10703ZM16.4475 16.0871H13.9404V11.825C13.9404 10.8039 13.5756 10.1063 12.6686 10.1063C11.9756 10.1063 11.5654 10.575 11.383 11.0316C11.3146 11.1957 11.2963 11.4191 11.2963 11.6473V16.0871H8.78926V8.29219H11.2963V9.37695C11.6611 8.85742 12.2311 8.10977 13.5572 8.10977C15.2029 8.10977 16.4479 9.19453 16.4479 11.5332L16.4475 16.0871Z" fill="#BABABA" stroke="#BABABA" stroke-width="0.0390625"/>
</svg>
