<svg width="65" height="57" viewBox="0 0 65 57" fill="none" xmlns="http://www.w3.org/2000/svg">
<path d="M65 38.5C65 48.4411 56.9411 56.5 47 56.5L20 56.5C17.2386 56.5 15 54.2614 15 51.5L15 17.5C15 11.9772 19.4772 7.5 25 7.5L60 7.5C62.7614 7.5 65 9.73858 65 12.5L65 38.5Z" fill="#E8F5E9"/>
<path d="M28.3114 24.1446C28.0706 24.1446 27.847 24.0784 27.6484 23.9719V23.9748C27.6484 24.3536 27.5012 24.7094 27.234 24.9758C26.9669 25.243 26.6114 25.3903 26.233 25.3903C25.9886 25.3903 25.7622 25.3224 25.5615 25.2131C25.5412 25.5597 25.4027 25.8836 25.1556 26.131C24.8884 26.3982 24.5329 26.5454 24.1542 26.5454C23.4019 26.5454 22.791 25.9541 22.747 25.2129C22.5142 25.3387 22.2511 25.4046 21.9796 25.3872C21.2396 25.3387 20.6601 24.6993 20.6601 23.9312V17.5645L19.9351 18.8205C19.659 19.3009 19.1421 19.5991 18.5856 19.5991C18.3144 19.5991 18.0465 19.528 17.8093 19.392C17.5139 19.2208 17.3025 18.9458 17.2146 18.6169C17.1263 18.2878 17.172 17.9436 17.3428 17.6486C17.343 17.6486 19.7148 13.5414 19.8595 13.2891C19.8767 13.2512 19.9257 13.1411 19.9674 13.0474C20.0072 12.9578 20.0414 12.866 20.0741 12.7736C20.7894 10.7543 22.5604 9.49998 24.6963 9.49998C27.47 9.49998 29.7266 11.9469 29.7266 14.9546L29.7268 22.7289C29.7268 23.1073 29.5798 23.4628 29.3129 23.7302C29.0457 23.9974 28.6902 24.1447 28.3114 24.1447L28.3114 24.1446ZM24.6964 10.2521C22.861 10.2521 21.3982 11.2888 20.7831 13.0251C20.7437 13.1354 20.7027 13.2457 20.6549 13.3531C20.5161 13.6643 20.5161 13.6643 20.477 13.7091L20.4718 13.7046C20.2782 14.07 19.7029 15.0663 17.9941 18.025C17.9239 18.1463 17.9052 18.2872 17.9411 18.422C17.9773 18.5567 18.0643 18.6703 18.1847 18.7398C18.5583 18.9544 19.0701 18.8159 19.283 18.4448L20.7105 15.9734C20.7958 15.8261 20.9683 15.7538 21.1337 15.7986C21.2981 15.8426 21.4124 15.9918 21.4124 16.1619V23.9314C21.4124 24.298 21.689 24.6144 22.0289 24.6368C22.225 24.6471 22.4078 24.5814 22.5451 24.4443C22.67 24.3194 22.7388 24.1531 22.7388 23.9752V18.8938C22.7388 18.686 22.9073 18.5176 23.115 18.5176C23.3228 18.5176 23.4913 18.6858 23.4913 18.8938L23.4911 25.1302C23.4911 25.4958 23.7886 25.7934 24.1543 25.7934C24.3319 25.7934 24.4987 25.7246 24.6238 25.5997C24.7487 25.4746 24.8175 25.3078 24.8175 25.1302V18.8938C24.8175 18.686 24.9857 18.5176 25.1937 18.5176C25.4015 18.5176 25.57 18.6858 25.57 18.8938L25.5697 23.9168V23.9752C25.5697 24.3406 25.8673 24.6381 26.2332 24.6381C26.4106 24.6381 26.5769 24.5691 26.7027 24.4438C26.8276 24.3191 26.8964 24.1528 26.8964 23.9749V18.8936C26.8964 18.6858 27.0646 18.5173 27.2726 18.5173C27.4804 18.5173 27.6489 18.6855 27.6489 18.8936L27.6484 22.7291C27.6484 23.095 27.946 23.3925 28.3114 23.3925C28.4893 23.3925 28.6556 23.3235 28.7805 23.1989C28.9058 23.0736 28.9744 22.9067 28.9744 22.7291L28.9746 14.9548C28.9746 12.362 27.0554 10.2522 24.6963 10.2522L24.6964 10.2521Z" fill="#103E13"/>
<path d="M13.529 29.5481L18.9887 26.2728C19.647 25.8774 20.4939 26.0454 20.9161 26.6554C21.0702 26.8776 21.1489 27.1365 21.1611 27.4001C21.3647 27.2939 21.5862 27.2362 21.8116 27.2362C21.9271 27.2362 22.043 27.2505 22.1575 27.279C22.5243 27.3707 22.8334 27.5999 23.0278 27.9241C23.2224 28.2487 23.2792 28.6292 23.1875 28.9956C23.103 29.3346 22.8968 29.62 22.6101 29.8157C22.8106 29.934 22.9835 30.0954 23.1065 30.3008C23.3011 30.6255 23.3579 31.0058 23.2665 31.3726C23.1748 31.739 22.9456 32.048 22.6209 32.2429L22.619 32.2441C22.816 32.3621 22.9859 32.5219 23.1074 32.7242C23.3023 33.0489 23.3591 33.4294 23.2674 33.7962C23.1755 34.1628 22.9463 34.4719 22.6221 34.6665L15.9557 38.6658C14.7115 39.4119 13.2732 39.6695 11.9062 39.3903C10.5271 39.1085 9.38485 38.3157 8.69034 37.158C7.59126 35.3262 7.75597 33.162 9.11937 31.5102C9.1818 31.4348 9.24329 31.358 9.29913 31.2784C9.35826 31.1943 9.42729 31.0953 9.45085 31.0614C9.59197 30.8093 11.8947 26.6604 11.8945 26.6609C12.127 26.2413 12.5629 26.0038 13.0124 26.004C13.2221 26.004 13.4348 26.0556 13.6311 26.1645C13.8681 26.2969 14.0672 26.4898 14.2064 26.7223C14.4927 27.1994 14.5028 27.7965 14.2333 28.2796L13.529 29.5481ZM13.5617 27.1091C13.4887 26.9873 13.3883 26.8903 13.2656 26.8215C13.0118 26.6811 12.6924 26.7725 12.5527 27.0253C10.9049 29.9938 10.3432 31.0054 10.1265 31.3654L10.1314 31.3666C10.1133 31.4269 10.1133 31.4269 9.9149 31.7104C9.84752 31.8062 9.77425 31.8984 9.69956 31.9891C8.5272 33.4095 8.39107 35.197 9.33509 36.771C9.91984 37.7459 10.8863 38.4143 12.0565 38.6532C13.2394 38.8937 14.4862 38.6699 15.5683 38.0206L22.2353 34.0211C22.3875 33.93 22.495 33.7851 22.5378 33.6133C22.5807 33.4418 22.5541 33.2635 22.4627 33.1113C22.2747 32.7979 21.8664 32.695 21.553 32.8837L18.2641 34.8568C18.086 34.9638 17.8546 34.9063 17.7479 34.728C17.641 34.5498 17.6987 34.3187 17.8768 34.2118L21.166 32.2386L22.2342 31.5978C22.3864 31.5064 22.494 31.3615 22.5369 31.1902C22.5798 31.0185 22.5532 30.8399 22.4617 30.6879C22.2735 30.3743 21.8652 30.2723 21.5521 30.4603L17.1947 33.0743C17.0161 33.1815 16.7855 33.1235 16.6785 32.9454C16.5716 32.7673 16.6295 32.5362 16.8074 32.4292L22.1552 29.2211C22.3074 29.1297 22.4149 28.985 22.4577 28.8133C22.5006 28.6418 22.474 28.4634 22.3828 28.3112C22.2916 28.1593 22.1468 28.0518 21.975 28.009C21.8023 27.9661 21.6247 27.9927 21.4729 28.0837L20.483 28.6776C20.4827 28.6776 20.4827 28.6778 20.4825 28.6778H20.4823L16.1251 31.2918C15.9465 31.3992 15.7157 31.3413 15.6089 31.1629C15.502 30.9848 15.5599 30.7537 15.7378 30.6467L20.0952 28.0328C20.2474 27.9414 20.355 27.7965 20.3979 27.6252C20.445 27.4372 20.4092 27.2449 20.2976 27.0838C20.1039 26.8037 19.6897 26.7292 19.3757 26.9179L12.7135 30.9146C12.5677 31.0018 12.3808 30.9806 12.2585 30.8626C12.136 30.7443 12.1085 30.5584 12.1909 30.4097L13.5763 27.9138C13.7153 27.6643 13.7098 27.3561 13.5617 27.1092L13.5617 27.1091Z" fill="#103E13"/>
<path d="M39.6181 37.1577C38.9238 38.3157 37.7819 39.1083 36.4025 39.3901C35.0353 39.6688 33.5974 39.4117 32.353 38.6656L25.686 34.6661C25.3616 34.4715 25.1321 34.1624 25.0402 33.7953C24.949 33.4289 25.006 33.0484 25.2004 32.7243C25.3217 32.5216 25.4918 32.3619 25.689 32.2439L25.6871 32.2427C25.3627 32.0481 25.1333 31.739 25.0419 31.3724C24.95 31.0058 25.007 30.625 25.2016 30.3004C25.3269 30.0919 25.4987 29.9289 25.6947 29.8132C25.4101 29.6174 25.2051 29.3331 25.1208 28.9957C25.0289 28.6288 25.0859 28.2483 25.2805 27.9242C25.4749 27.5997 25.7842 27.3705 26.1508 27.2789C26.2653 27.2501 26.3815 27.236 26.4965 27.236C26.7222 27.2362 26.9436 27.2935 27.1472 27.4C27.1597 27.1363 27.2381 26.8774 27.3922 26.6552C27.8146 26.0458 28.6609 25.8771 29.3201 26.2726L34.7796 29.5474L34.0759 28.2799C33.8059 27.796 33.8158 27.199 34.1021 26.7216C34.2415 26.4893 34.4408 26.2964 34.679 26.1628C34.8748 26.0544 35.0869 26.0031 35.296 26.0031C35.7453 26.0033 36.1817 26.2403 36.4139 26.6599C37.2235 28.1185 38.7511 30.8694 38.8585 31.0614C38.8813 31.0946 38.9504 31.1936 39.0095 31.2777C39.0658 31.3575 39.1266 31.4339 39.1895 31.5097C40.5527 33.1622 40.7171 35.3262 39.6181 37.1578L39.6181 37.1577ZM38.6091 31.9892C38.5341 31.8985 38.4606 31.8059 38.3937 31.7105C38.1902 31.4217 38.185 31.4141 38.1697 31.3385C37.9317 30.9448 37.3512 29.8997 35.7555 27.0249C35.6156 26.7726 35.2975 26.6805 35.0443 26.8204C34.9196 26.8901 34.8195 26.9874 34.7465 27.1093C34.5985 27.3559 34.5928 27.6641 34.7326 27.9143L36.1174 30.4095C36.2001 30.5584 36.1725 30.7441 36.0503 30.8623C35.9282 30.9808 35.7416 31.0016 35.5951 30.9144L28.9329 26.9177C28.6189 26.7295 28.2049 26.8032 28.0108 27.0836C27.8991 27.2447 27.8635 27.437 27.9102 27.6247C27.9531 27.7963 28.0607 27.9409 28.2132 28.0323C28.2136 28.0326 28.2139 28.033 28.2143 28.0333L32.5703 30.6465C32.7484 30.7535 32.8062 30.9844 32.6992 31.1627C32.5922 31.3406 32.3616 31.3988 32.183 31.2916L26.8352 28.0835C26.6834 27.9925 26.5048 27.9657 26.3333 28.0088C26.1613 28.0517 26.0167 28.1591 25.9255 28.3115C25.8341 28.4635 25.8077 28.6418 25.8501 28.8133C25.893 28.9849 26.0007 29.1297 26.1529 29.2212L27.1935 29.8453L31.5005 32.4293C31.6786 32.5363 31.7363 32.7672 31.6293 32.9455C31.5224 33.1234 31.2917 33.1814 31.1131 33.0744L26.7562 30.4604C26.4429 30.2719 26.0348 30.3742 25.8464 30.688C25.755 30.8402 25.7286 31.0186 25.771 31.1901C25.8139 31.3616 25.9215 31.5062 26.0739 31.5979L27.1422 32.2387L30.4308 34.2119C30.609 34.3188 30.6667 34.5497 30.5597 34.7281C30.4528 34.9059 30.2221 34.9644 30.0435 34.8569L26.7548 32.8838C26.6031 32.7928 26.4252 32.766 26.2528 32.8091C26.0813 32.852 25.9361 32.9594 25.845 33.1114C25.7538 33.2636 25.7272 33.4421 25.7696 33.6134C25.8124 33.7849 25.9201 33.9296 26.0725 34.0212L32.7395 38.0207C33.8214 38.6698 35.0691 38.8945 36.2514 38.6533C37.4213 38.4144 38.3878 37.746 38.9725 36.7711C39.9175 35.1968 39.7816 33.4091 38.6095 31.9892L38.6091 31.9892Z" fill="#103E13"/>
</svg>
