<svg width="21" height="20" viewBox="0 0 21 20" fill="none" xmlns="http://www.w3.org/2000/svg">
<g clip-path="url(#clip0_193_1420)">
<path d="M10.4541 8.18184V12.0546H15.9458C15.7046 13.3001 14.981 14.3546 13.8956 15.0637L17.2073 17.5819C19.1368 15.8365 20.25 13.2729 20.25 10.2274C20.25 9.51832 20.1851 8.83644 20.0645 8.18195L10.4541 8.18184Z" fill="#4285F4"/>
<path d="M4.73542 11.9034L3.98851 12.4637L1.34467 14.4819C3.02371 17.7455 6.46503 20.0001 10.4539 20.0001C13.2089 20.0001 15.5188 19.1092 17.2071 17.5819L13.8954 15.0637C12.9863 15.6637 11.8268 16.0274 10.4539 16.0274C7.80083 16.0274 5.54671 14.2729 4.73959 11.9092L4.73542 11.9034Z" fill="#34A853"/>
<path d="M1.34467 5.51822C0.648969 6.86363 0.250122 8.38184 0.250122 10C0.250122 11.6182 0.648969 13.1364 1.34467 14.4818C1.34467 14.4908 4.73992 11.9 4.73992 11.9C4.53584 11.3 4.41521 10.6636 4.41521 9.9999C4.41521 9.33617 4.53584 8.69984 4.73992 8.09984L1.34467 5.51822Z" fill="#FBBC05"/>
<path d="M10.4541 3.98184C11.9569 3.98184 13.2927 4.49092 14.3595 5.47275L17.2816 2.60914C15.5097 0.990976 13.2093 0 10.4541 0C6.46524 0 3.02371 2.24546 1.34467 5.51822L4.73981 8.10005C5.54682 5.73638 7.80104 3.98184 10.4541 3.98184Z" fill="#EA4335"/>
</g>
<defs>
<clipPath id="clip0_193_1420">
<rect width="20" height="20" fill="white" transform="translate(0.25)"/>
</clipPath>
</defs>
</svg>
