<svg width="1910" height="830" viewBox="0 0 1910 830" fill="none" xmlns="http://www.w3.org/2000/svg">
<g clip-path="url(#clip0_2_5)">
<path fill-rule="evenodd" clip-rule="evenodd" d="M1910 0C1910 0 1910 635.265 1910 730.851C1863.5 740.312 1808.05 717.981 1759.74 727.323C1711.86 736.58 1669.82 779.173 1619.96 786.646C1571.57 793.897 1517.06 765.834 1466.99 771.322C1418.22 776.667 1372.39 815.782 1322.21 819.378C1273.17 822.892 1221.33 790.819 1171.09 792.593C1121.89 794.329 1072.85 830 1022.65 830C972.441 830 923.419 794.329 874.215 792.593C823.986 790.819 772.138 822.893 723.109 819.38C672.923 815.784 627.087 776.668 578.325 771.324C528.257 765.836 473.746 793.899 425.36 786.649C375.494 779.176 333.452 736.584 285.572 727.326C236.011 717.745 178.94 741.095 131.726 729.699C82.9636 717.93 45.8669 672.356 0 658.277C0 624.46 0 0 0 0H1910Z" fill="#0C243c"/>
</g>
<defs>
<clipPath id="clip0_2_5">
<rect width="1910" height="830" fill="white"/>
</clipPath>
</defs>
</svg>
