<svg width="66" height="57" viewBox="0 0 66 57" fill="none" xmlns="http://www.w3.org/2000/svg">
<path d="M65.5 38.5C65.5 48.4411 57.4411 56.5 47.5 56.5L20.5 56.5C17.7386 56.5 15.5 54.2614 15.5 51.5L15.5 17.5C15.5 11.9772 19.9772 7.5 25.5 7.5L60.5 7.5C63.2614 7.5 65.5 9.73858 65.5 12.5L65.5 38.5Z" fill="#E8F5E9"/>
<path d="M27.4163 19.5109C27.1042 19.5109 26.8506 19.2577 26.8506 18.9453V17.9839C26.8506 17.6719 27.1038 17.4183 27.4163 17.4183C27.7283 17.4183 27.9819 17.6715 27.9819 17.9839V18.9453C27.9819 19.2577 27.7283 19.5109 27.4163 19.5109Z" fill="#103E13"/>
<path d="M25.0381 19.5109C24.7261 19.5109 24.4724 19.2577 24.4724 18.9453V17.9839C24.4724 17.6719 24.7257 17.4183 25.0381 17.4183C25.3501 17.4183 25.6038 17.6715 25.6038 17.9839V18.9453C25.6034 19.2577 25.3505 19.5109 25.0381 19.5109Z" fill="#103E13"/>
<path d="M22.6599 19.5109C22.3479 19.5109 22.0942 19.2577 22.0942 18.9453V17.9839C22.0942 17.6719 22.3475 17.4183 22.6599 17.4183C22.9719 17.4183 23.2256 17.6715 23.2256 17.9839V18.9453C23.2256 19.2577 22.9723 19.5109 22.6599 19.5109Z" fill="#103E13"/>
<path d="M27.4163 23.4421C27.1042 23.4421 26.8506 23.1889 26.8506 22.8765V21.9155C26.8506 21.6035 27.1038 21.3499 27.4163 21.3499C27.7283 21.3499 27.9819 21.6031 27.9819 21.9155V22.8765C27.9819 23.1889 27.7283 23.4421 27.4163 23.4421Z" fill="#103E13"/>
<path d="M25.0381 23.4421C24.7261 23.4421 24.4724 23.1889 24.4724 22.8765V21.9155C24.4724 21.6035 24.7257 21.3499 25.0381 21.3499C25.3501 21.3499 25.6038 21.6031 25.6038 21.9155V22.8765C25.6034 23.1889 25.3505 23.4421 25.0381 23.4421Z" fill="#103E13"/>
<path d="M22.6599 23.4421C22.3479 23.4421 22.0942 23.1889 22.0942 22.8765V21.9155C22.0942 21.6035 22.3475 21.3499 22.6599 21.3499C22.9719 21.3499 23.2256 21.6031 23.2256 21.9155V22.8765C23.2256 23.1889 22.9723 23.4421 22.6599 23.4421Z" fill="#103E13"/>
<path d="M27.4163 27.3734C27.1042 27.3734 26.8506 27.1201 26.8506 26.8077V25.8464C26.8506 25.5344 27.1038 25.2807 27.4163 25.2807C27.7283 25.2807 27.9819 25.5339 27.9819 25.8464V26.8077C27.9819 27.1201 27.7283 27.3734 27.4163 27.3734Z" fill="#103E13"/>
<path d="M25.0381 27.3734C24.7261 27.3734 24.4724 27.1201 24.4724 26.8077V25.8464C24.4724 25.5344 24.7257 25.2807 25.0381 25.2807C25.3501 25.2807 25.6038 25.5339 25.6038 25.8464V26.8077C25.6034 27.1201 25.3505 27.3734 25.0381 27.3734Z" fill="#103E13"/>
<path d="M22.6599 27.3734C22.3479 27.3734 22.0942 27.1201 22.0942 26.8077V25.8464C22.0942 25.5344 22.3475 25.2807 22.6599 25.2807C22.9719 25.2807 23.2256 25.5339 23.2256 25.8464V26.8077C23.2256 27.1201 22.9723 27.3734 22.6599 27.3734Z" fill="#103E13"/>
<path d="M27.4163 31.3039C27.1042 31.3039 26.8506 31.0506 26.8506 30.7382V29.7769C26.8506 29.4648 27.1038 29.2112 27.4163 29.2112C27.7283 29.2112 27.9819 29.4644 27.9819 29.7769V30.7382C27.9819 31.0506 27.7283 31.3039 27.4163 31.3039Z" fill="#103E13"/>
<path d="M25.0381 31.3039C24.7261 31.3039 24.4724 31.0506 24.4724 30.7382V29.7769C24.4724 29.4648 24.7257 29.2112 25.0381 29.2112C25.3501 29.2112 25.6038 29.4644 25.6038 29.7769V30.7382C25.6034 31.0506 25.3505 31.3039 25.0381 31.3039Z" fill="#103E13"/>
<path d="M22.6599 31.3039C22.3479 31.3039 22.0942 31.0506 22.0942 30.7382V29.7769C22.0942 29.4648 22.3475 29.2112 22.6599 29.2112C22.9719 29.2112 23.2256 29.4644 23.2256 29.7769V30.7382C23.2256 31.0506 22.9723 31.3039 22.6599 31.3039Z" fill="#103E13"/>
<path d="M27.4163 35.235C27.1042 35.235 26.8506 34.9818 26.8506 34.6694V33.7084C26.8506 33.3964 27.1038 33.1428 27.4163 33.1428C27.7283 33.1428 27.9819 33.396 27.9819 33.7084V34.6694C27.9819 34.9814 27.7283 35.235 27.4163 35.235Z" fill="#103E13"/>
<path d="M25.0381 35.235C24.7261 35.235 24.4724 34.9818 24.4724 34.6694V33.7084C24.4724 33.3964 24.7257 33.1428 25.0381 33.1428C25.3501 33.1428 25.6038 33.396 25.6038 33.7084V34.6694C25.6034 34.9814 25.3505 35.235 25.0381 35.235Z" fill="#103E13"/>
<path d="M22.6599 35.235C22.3479 35.235 22.0942 34.9818 22.0942 34.6694L22.0946 33.7084C22.0946 33.3964 22.3479 33.1428 22.6603 33.1428C22.9723 33.1428 23.226 33.396 23.226 33.7084V34.6694C23.2256 34.9814 22.9723 35.235 22.6599 35.235Z" fill="#103E13"/>
<path d="M6.50047 39.1472C6.50047 39.4592 6.75372 39.7129 7.06615 39.7129H41.5139C41.8259 39.7129 42.0796 39.4596 42.0796 39.1472C42.0796 38.8352 41.8263 38.5815 41.5139 38.5815H40.4682V22.3402C40.4682 22.0282 40.215 21.7746 39.9025 21.7746L30.6668 21.7749V10.0658C30.6668 9.8678 30.5635 9.68477 30.3946 9.5822C30.2262 9.47925 30.0156 9.47294 29.8404 9.56405L19.3401 15.031C19.1527 15.1285 19.0359 15.3218 19.0359 15.5328V25.7605H8.87388C8.56186 25.7605 8.3082 26.0137 8.3082 26.3262V38.5816H7.06489C6.75287 38.5812 6.5 38.8345 6.5 39.1469L6.50047 39.1472ZM30.667 30.3423H39.3374V38.582L30.667 38.5816V30.3423ZM30.667 26.4114H39.3374V29.2114L30.667 29.211V26.4114ZM30.667 22.9057H39.3374V25.2809H30.667V22.9057ZM20.1667 15.8763L29.5353 10.9982V38.5811H20.1667V15.8763ZM12.2359 34.0636C12.2359 32.8896 13.166 31.9342 14.3096 31.9342C15.4531 31.9342 16.3837 32.8892 16.3837 34.0636V38.5818H12.2359V34.0636ZM9.43952 26.8916H19.0358V38.5816H17.515V34.0634C17.515 32.2657 16.0776 30.8031 14.3096 30.8031C12.5424 30.8031 11.105 32.2653 11.105 34.0634V38.5816H9.43952V26.8916Z" fill="#103E13"/>
</svg>
